HIERARCHY
ROOT mixamorig:Hips
{
	OFFSET 0.00 0.00 0.00
	CHANNELS 6 Xposition Yposition Zposition Zrotation Yrotation Xrotation
	JOINT mixamorig:Spine
	{
		OFFSET	0.0000	9.9235	-1.2273
		CHANNELS 3 Zrotation Yrotation Xrotation
		JOINT mixamorig:Spine1
		{
			OFFSET	-0.0001	11.6455	-1.4224
			CHANNELS 3 Zrotation Yrotation Xrotation
			JOINT mixamorig:Spine2
			{
				OFFSET	0.0001	13.3602	-1.6265
				CHANNELS 3 Zrotation Yrotation Xrotation
				JOINT mixamorig:Neck
				{
					OFFSET	0.0000	15.0325	0.7929
					CHANNELS 3 Zrotation Yrotation Xrotation
					JOINT mixamorig:Head
					{
						OFFSET	-0.0000	10.3218	3.1424
						CHANNELS 3 Zrotation Yrotation Xrotation
						JOINT mixamorig:HeadTop_End
						{
							OFFSET	0.0002	18.4747	6.6364
							CHANNELS 3 Zrotation Yrotation Xrotation
							End Site
							{
								OFFSET 0.0000 0.0000 0.0000
							}
						}
						JOINT mixamorig:LeftEye
						{
							OFFSET	2.9479	7.6817	9.1207
							CHANNELS 3 Zrotation Yrotation Xrotation
							End Site
							{
								OFFSET 0.0000 0.0000 0.0000
							}
						}
						JOINT mixamorig:RightEye
						{
							OFFSET	-2.9445	7.6817	9.1205
							CHANNELS 3 Zrotation Yrotation Xrotation
							End Site
							{
								OFFSET 0.0000 0.0000 0.0000
							}
						}
					}
				}
				JOINT mixamorig:LeftShoulder
				{
					OFFSET	6.1059	9.1104	0.7056
					CHANNELS 3 Zrotation Yrotation Xrotation
					JOINT mixamorig:LeftArm
					{
						OFFSET	12.6532	-0.3431	-2.6009
						CHANNELS 3 Zrotation Yrotation Xrotation
						JOINT mixamorig:LeftForeArm
						{
							OFFSET	27.3517	-0.9645	-1.4034
							CHANNELS 3 Zrotation Yrotation Xrotation
							JOINT mixamorig:LeftHand
							{
								OFFSET	27.5619	-0.7072	1.5500
								CHANNELS 3 Zrotation Yrotation Xrotation
								JOINT mixamorig:LeftHandMiddle1
								{
									OFFSET	12.6630	-1.3962	0.9548
									CHANNELS 3 Zrotation Yrotation Xrotation
									JOINT mixamorig:LeftHandMiddle2
									{
										OFFSET	3.6093	-0.1669	0.0778
										CHANNELS 3 Zrotation Yrotation Xrotation
										JOINT mixamorig:LeftHandMiddle3
										{
											OFFSET	3.4004	-0.6274	0.1148
											CHANNELS 3 Zrotation Yrotation Xrotation
											End Site
											{
												OFFSET 3.6205 -0.6493 0.1199
											}
										}
									}
								}
								JOINT mixamorig:LeftHandThumb1
								{
									OFFSET	3.3268	-2.0474	3.5790
									CHANNELS 3 Zrotation Yrotation Xrotation
									JOINT mixamorig:LeftHandThumb2
									{
										OFFSET	3.4890	-1.4806	2.8548
										CHANNELS 3 Zrotation Yrotation Xrotation
										JOINT mixamorig:LeftHandThumb3
										{
											OFFSET	3.4086	-1.7658	2.1133
											CHANNELS 3 Zrotation Yrotation Xrotation
											End Site
											{
												OFFSET 2.7231 -1.1597 1.7903
											}
										}
									}
								}
								JOINT mixamorig:LeftHandIndex1
								{
									OFFSET	11.9722	-1.1061	3.7324
									CHANNELS 3 Zrotation Yrotation Xrotation
									JOINT mixamorig:LeftHandIndex2
									{
										OFFSET	3.8387	-0.6406	-0.0310
										CHANNELS 3 Zrotation Yrotation Xrotation
										JOINT mixamorig:LeftHandIndex3
										{
											OFFSET	3.3346	-0.7374	-0.0133
											CHANNELS 3 Zrotation Yrotation Xrotation
											End Site
											{
												OFFSET 2.9714 -0.8030 0.0009
											}
										}
									}
								}
								JOINT mixamorig:LeftHandRing1
								{
									OFFSET	12.1659	-1.6805	-1.2769
									CHANNELS 3 Zrotation Yrotation Xrotation
									JOINT mixamorig:LeftHandRing2
									{
										OFFSET	3.5925	-0.2366	-0.0771
										CHANNELS 3 Zrotation Yrotation Xrotation
										JOINT mixamorig:LeftHandRing3
										{
											OFFSET	3.2906	-0.3266	-0.0615
											CHANNELS 3 Zrotation Yrotation Xrotation
											End Site
											{
												OFFSET 3.5423 -0.9211 -0.0200
											}
										}
									}
								}
								JOINT mixamorig:LeftHandPinky1
								{
									OFFSET	11.0508	-2.1872	-3.8040
									CHANNELS 3 Zrotation Yrotation Xrotation
									JOINT mixamorig:LeftHandPinky2
									{
										OFFSET	4.1236	-0.3047	0.1212
										CHANNELS 3 Zrotation Yrotation Xrotation
										JOINT mixamorig:LeftHandPinky3
										{
											OFFSET	2.5805	-0.2597	0.0823
											CHANNELS 3 Zrotation Yrotation Xrotation
											End Site
											{
												OFFSET 2.9027 -0.3379 0.0963
											}
										}
									}
								}
							}
						}
					}
				}
				JOINT mixamorig:RightShoulder
				{
					OFFSET	-6.1057	9.1105	0.7056
					CHANNELS 3 Zrotation Yrotation Xrotation
					JOINT mixamorig:RightArm
					{
						OFFSET	-12.6532	-0.3429	-2.6009
						CHANNELS 3 Zrotation Yrotation Xrotation
						JOINT mixamorig:RightForeArm
						{
							OFFSET	-27.3518	-0.9642	-1.4034
							CHANNELS 3 Zrotation Yrotation Xrotation
							JOINT mixamorig:RightHand
							{
								OFFSET	-27.5619	-0.7068	1.5501
								CHANNELS 3 Zrotation Yrotation Xrotation
								JOINT mixamorig:RightHandMiddle1
								{
									OFFSET	-12.6630	-1.3960	0.9549
									CHANNELS 3 Zrotation Yrotation Xrotation
									JOINT mixamorig:RightHandMiddle2
									{
										OFFSET	-3.6093	-0.1669	0.0778
										CHANNELS 3 Zrotation Yrotation Xrotation
										JOINT mixamorig:RightHandMiddle3
										{
											OFFSET	-3.4004	-0.6273	0.1148
											CHANNELS 3 Zrotation Yrotation Xrotation
											End Site
											{
												OFFSET -3.6205 -0.6492 0.1199
											}
										}
									}
								}
								JOINT mixamorig:RightHandThumb1
								{
									OFFSET	-3.3269	-2.0474	3.5790
									CHANNELS 3 Zrotation Yrotation Xrotation
									JOINT mixamorig:RightHandThumb2
									{
										OFFSET	-3.4890	-1.4805	2.8548
										CHANNELS 3 Zrotation Yrotation Xrotation
										JOINT mixamorig:RightHandThumb3
										{
											OFFSET	-3.4086	-1.7658	2.1133
											CHANNELS 3 Zrotation Yrotation Xrotation
											End Site
											{
												OFFSET -2.7231 -1.1596 1.7903
											}
										}
									}
								}
								JOINT mixamorig:RightHandIndex1
								{
									OFFSET	-11.9722	-1.1059	3.7324
									CHANNELS 3 Zrotation Yrotation Xrotation
									JOINT mixamorig:RightHandIndex2
									{
										OFFSET	-3.8387	-0.6406	-0.0310
										CHANNELS 3 Zrotation Yrotation Xrotation
										JOINT mixamorig:RightHandIndex3
										{
											OFFSET	-3.3346	-0.7373	-0.0133
											CHANNELS 3 Zrotation Yrotation Xrotation
											End Site
											{
												OFFSET -2.9715 -0.8029 0.0009
											}
										}
									}
								}
								JOINT mixamorig:RightHandRing1
								{
									OFFSET	-12.1659	-1.6803	-1.2769
									CHANNELS 3 Zrotation Yrotation Xrotation
									JOINT mixamorig:RightHandRing2
									{
										OFFSET	-3.5925	-0.2366	-0.0771
										CHANNELS 3 Zrotation Yrotation Xrotation
										JOINT mixamorig:RightHandRing3
										{
											OFFSET	-3.2906	-0.3265	-0.0615
											CHANNELS 3 Zrotation Yrotation Xrotation
											End Site
											{
												OFFSET -3.5423 -0.9210 -0.0200
											}
										}
									}
								}
								JOINT mixamorig:RightHandPinky1
								{
									OFFSET	-11.0508	-2.1870	-3.8040
									CHANNELS 3 Zrotation Yrotation Xrotation
									JOINT mixamorig:RightHandPinky2
									{
										OFFSET	-4.1236	-0.3046	0.1212
										CHANNELS 3 Zrotation Yrotation Xrotation
										JOINT mixamorig:RightHandPinky3
										{
											OFFSET	-2.5805	-0.2597	0.0823
											CHANNELS 3 Zrotation Yrotation Xrotation
											End Site
											{
												OFFSET -2.9027 -0.3379 0.0963
											}
										}
									}
								}
							}
						}
					}
				}
			}
		}
	}
	JOINT mixamorig:RightUpLeg
	{
		OFFSET	-9.1245	-6.6564	-0.0554
		CHANNELS 3 Zrotation Yrotation Xrotation
		JOINT mixamorig:RightLeg
		{
			OFFSET	0.0000	-40.5610	-1.7662
			CHANNELS 3 Zrotation Yrotation Xrotation
			JOINT mixamorig:RightFoot
			{
				OFFSET	0.4978	-41.9625	-3.3512
				CHANNELS 3 Zrotation Yrotation Xrotation
				JOINT mixamorig:RightToeBase
				{
					OFFSET	-0.3734	-10.4922	12.6406
					CHANNELS 3 Zrotation Yrotation Xrotation
					End Site
					{
						OFFSET 0.0000 0.0000 9.9925
					}
				}
			}
		}
	}
	JOINT mixamorig:LeftUpLeg
	{
		OFFSET	9.1245	-6.6564	-0.0554
		CHANNELS 3 Zrotation Yrotation Xrotation
		JOINT mixamorig:LeftLeg
		{
			OFFSET	-0.0000	-40.5610	-1.7662
			CHANNELS 3 Zrotation Yrotation Xrotation
			JOINT mixamorig:LeftFoot
			{
				OFFSET	-0.4978	-41.9625	-3.3512
				CHANNELS 3 Zrotation Yrotation Xrotation
				JOINT mixamorig:LeftToeBase
				{
					OFFSET	0.3734	-10.4922	12.6406
					CHANNELS 3 Zrotation Yrotation Xrotation
					End Site
					{
						OFFSET -0.0000 0.0000 9.9925
					}
				}
			}
		}
	}
}
MOTION
Frames: 6
Frame Time: 0.0333333
0.0864 97.9799 0.2793 -1.1140 -0.1343 -1.5188 0.0631 -0.1312 0.9679 0.1021 -2.4805 1.0155 0.1456 -2.4776 1.0086 -1.4682 0.8106 -2.7715 3.5307 -1.8728 5.4707 0.0000 -0.0000 0.0000 0.0000 -0.0000 0.0000 0.0000 -0.0000 0.0000 -0.1558 7.3805 -0.3738 -71.9591 -9.1164 23.9214 -0.4174 -23.1337 -0.6276 -5.5800 14.4776 16.8199 -31.0175 -4.7025 2.1659 -16.2371 -0.2487 0.4509 -15.1998 -0.5994 0.4707 -5.5774 14.1369 -6.7888 4.2780 6.7367 4.5407 -0.7939 4.3342 2.5972 -17.9167 -6.8326 0.4589 -32.6569 -1.0315 -0.0954 -14.7873 -0.3754 -0.0690 -36.0982 -8.5578 2.2342 -15.4593 -0.5232 -0.2814 -2.1660 0.3096 0.0228 -49.2910 -0.8632 3.8841 -19.5985 -4.5607 1.7358 -6.8144 -0.2339 0.2092 -4.0239 2.4823 0.8217 75.9242 12.5692 23.9044 0.4424 20.9356 -0.5615 -4.1505 -14.9404 8.6082 24.8631 -1.3554 1.9314 21.5578 0.3876 0.6181 5.7339 -0.0334 -1.4102 0.8560 -23.4916 13.2736 -3.5521 7.7523 0.0360 0.0910 -0.8871 0.6759 8.5406 1.3878 0.5831 35.7716 1.0971 -0.0774 5.4300 0.0360 -0.0170 32.5541 4.3683 2.2027 20.2346 0.6996 -0.3385 -0.4430 -0.8783 -1.6953 40.4345 -0.4192 3.2568 15.8362 0.4829 0.5073 6.9167 0.2286 0.2130 -4.4668 -14.2506 -11.0163 -2.7420 -3.3870 18.6005 7.1698 -3.9025 -4.2130 0.0000 -0.0000 -0.0000 2.4016 4.5005 -11.6930 4.7851 7.9543 23.4772 -4.3263 2.0553 -9.4225 -0.0000 0.0000 -0.4642 
0.2655 97.9420 0.2431 -1.2136 -0.1527 -1.5412 0.0555 -0.1164 1.0054 0.0869 -2.4608 1.0860 0.1318 -2.4581 1.0796 -1.4175 0.7921 -2.7398 3.5759 -1.8894 5.4252 0.0000 -0.0000 0.0000 0.0000 -0.0000 0.0000 0.0000 -0.0000 0.0000 -0.0920 7.2412 -0.3565 -72.0479 -9.2015 24.0270 -0.4177 -23.1118 -0.6269 -5.5997 14.4710 16.8805 -31.1334 -4.7263 2.1745 -16.1067 -0.2443 0.4469 -15.1335 -0.5972 0.4683 -5.5704 14.1454 -6.7904 4.2761 6.7318 4.5277 -0.7953 4.3328 2.5973 -18.0267 -6.8278 0.4690 -32.4647 -1.0246 -0.0967 -14.6926 -0.3721 -0.0687 -36.1790 -8.6185 2.2369 -15.4043 -0.5209 -0.2806 -2.1358 0.3107 0.0234 -49.4262 -0.9520 3.8878 -19.5985 -4.5607 1.7358 -6.8155 -0.2340 0.2092 -3.8730 2.7279 0.8579 75.8308 12.6317 23.9657 0.4418 20.9955 -0.5633 -4.2125 -14.9010 8.5841 25.0346 -1.2832 1.9424 21.4812 0.3853 0.6156 5.6473 -0.0399 -1.4305 0.7343 -23.5104 13.2665 -3.5274 7.7892 -0.0209 0.0951 -0.8862 0.6774 8.5858 1.4412 0.5779 35.7540 1.0965 -0.0775 5.3781 0.0343 -0.0166 32.6623 4.4625 2.2055 20.1561 0.6963 -0.3377 -0.4992 -0.8827 -1.7035 40.6255 -0.3084 3.2639 15.8111 0.4821 0.5064 6.8110 0.2248 0.2095 -4.4565 -14.3535 -11.0519 -2.8089 -3.3927 18.6464 7.2886 -3.7699 -4.1558 -0.0000 0.0000 -0.0000 2.4105 4.5535 -11.8713 4.7628 7.8886 23.8364 -4.2105 2.0837 -9.6120 0.0000 0.0000 -0.4458 
0.4386 97.9122 0.2305 -1.3048 -0.1601 -1.5674 0.0462 -0.1013 1.0376 0.0694 -2.4364 1.1479 0.1156 -2.4338 1.1421 -1.3728 0.7769 -2.6851 3.6188 -1.9065 5.4252 0.0000 -0.0000 0.0000 0.0000 -0.0000 0.0000 0.0000 -0.0000 0.0000 -0.0513 7.1795 -0.3476 -72.0760 -9.2443 24.0549 -0.4180 -23.0824 -0.6260 -5.5942 14.4692 16.9610 -31.2621 -4.7476 2.1842 -15.9871 -0.2402 0.4433 -15.0721 -0.5951 0.4661 -5.5643 14.1544 -6.7913 4.2745 6.7265 4.5132 -0.7966 4.3281 2.5956 -18.1352 -6.8197 0.4795 -32.2884 -1.0183 -0.0978 -14.6049 -0.3689 -0.0685 -36.2795 -8.6774 2.2414 -15.3544 -0.5188 -0.2800 -2.1075 0.3118 0.0240 -49.6059 -1.0385 3.8952 -19.5986 -4.5607 1.7358 -6.8163 -0.2340 0.2092 -3.7980 2.8745 0.8785 75.8396 12.6628 24.0321 0.4415 21.0277 -0.5642 -4.2199 -14.8683 8.4206 25.0431 -1.2539 1.9417 21.5105 0.3862 0.6165 5.5672 -0.0413 -1.4241 0.6514 -23.5283 13.2695 -3.5079 7.8177 -0.0647 0.0972 -0.8844 0.6776 8.7000 1.4554 0.5849 35.6983 1.0947 -0.0780 5.2871 0.0312 -0.0158 32.6220 4.5155 2.1987 20.2444 0.7000 -0.3386 -0.5325 -0.8799 -1.6873 40.6260 -0.2365 3.2584 15.9000 0.4848 0.5097 6.7629 0.2230 0.2079 -4.4564 -14.4443 -11.0378 -2.8805 -3.4202 18.6416 7.4107 -3.6392 -4.0913 0.0000 -0.0000 -0.0000 2.4204 4.6014 -11.9940 4.7135 7.8168 24.1231 -4.0887 2.1234 -9.7831 -0.0000 0.0000 -0.4395 
0.5918 97.9059 0.2823 -1.3665 -0.1390 -1.6124 0.0322 -0.0867 1.0571 0.0448 -2.4013 1.1896 0.0922 -2.3989 1.1848 -1.3556 0.7739 -2.5682 3.6564 -1.9236 5.5316 0.0000 -0.0000 0.0000 0.0000 -0.0000 0.0000 0.0000 -0.0000 0.0000 -0.0465 7.1620 -0.3446 -72.0447 -9.2604 24.0377 -0.4184 -23.0471 -0.6250 -5.5736 14.4797 17.0453 -31.3739 -4.7656 2.1927 -15.9326 -0.2383 0.4416 -15.0441 -0.5942 0.4650 -5.5602 14.1631 -6.7910 4.2740 6.7204 4.4950 -0.7976 4.3143 2.5893 -18.1856 -6.8131 0.4848 -32.2081 -1.0155 -0.0983 -14.5649 -0.3675 -0.0684 -36.4016 -8.7258 2.2484 -15.3329 -0.5179 -0.2797 -2.0938 0.3123 0.0243 -49.8581 -1.1067 3.9096 -19.5986 -4.5607 1.7358 -6.8162 -0.2340 0.2092 -3.7658 2.9610 0.8904 75.9111 12.6682 24.1161 0.4412 21.0520 -0.5649 -4.1932 -14.8422 8.1790 24.5024 -1.3419 1.9008 21.8763 0.3971 0.6287 5.5235 -0.0265 -1.3336 0.7285 -23.5076 13.2333 -3.5206 7.7786 0.0079 0.0964 -0.9105 0.6891 8.9962 1.3614 0.6247 35.5352 1.0891 -0.0792 5.0946 0.0248 -0.0142 32.1012 4.4592 2.1592 20.8519 0.7253 -0.3446 -0.4907 -0.8536 -1.5930 40.0070 -0.2648 3.2102 16.3483 0.4987 0.5260 6.8961 0.2279 0.2123 -4.4915 -14.4897 -10.8785 -2.9613 -3.5026 18.4982 7.5408 -3.5272 -4.0107 -0.0000 -0.0000 -0.0000 2.4323 4.6058 -11.9554 4.5956 7.7497 24.2144 -3.9554 2.1963 -9.9044 -0.0000 0.0000 -0.4544 
0.7326 97.8921 0.3347 -1.4176 -0.1110 -1.6678 0.0143 -0.0724 1.0791 0.0148 -2.3686 1.2363 0.0637 -2.3663 1.2325 -1.3460 0.7732 -2.4348 3.6998 -1.9417 5.6101 0.0000 -0.0000 0.0000 0.0000 -0.0000 0.0000 0.0000 -0.0000 0.0000 -0.0635 7.1452 -0.3437 -71.9721 -9.2443 23.9706 -0.4190 -23.0042 -0.6237 -5.5338 14.5075 17.1252 -31.3742 -4.8035 2.1909 -15.9582 -0.2392 0.4424 -15.0601 -0.5947 0.4656 -5.5567 14.1679 -6.7912 4.2743 6.7152 4.4785 -0.7993 4.2987 2.5823 -18.1195 -6.8450 0.4739 -32.2459 -1.0168 -0.0981 -14.5876 -0.3683 -0.0685 -36.4542 -8.7677 2.2501 -15.3444 -0.5184 -0.2798 -2.1006 0.3120 0.0242 -50.0045 -1.1499 3.9177 -19.5986 -4.5607 1.7358 -6.8159 -0.2340 0.2092 -3.7481 3.0196 0.9002 76.0113 12.6424 24.2130 0.4408 21.0850 -0.5659 -4.1496 -14.8210 7.9052 23.8192 -1.4108 1.8473 22.3359 0.4107 0.6440 5.5276 -0.0082 -1.2326 0.8906 -23.4304 13.0908 -3.5569 7.6704 0.2077 0.0997 -0.9904 0.7269 9.2205 1.2868 0.6553 35.4400 1.0858 -0.0799 4.9504 0.0199 -0.0131 31.5042 4.4227 2.1121 21.5489 0.7544 -0.3511 -0.4304 -0.8242 -1.4893 39.3045 -0.2725 3.1535 16.8517 0.5141 0.5445 7.0505 0.2335 0.2173 -4.5337 -14.5215 -10.7450 -3.0312 -3.5481 18.4309 7.6690 -3.4647 -3.9779 0.0000 0.0000 -0.0000 2.4480 4.5021 -11.9215 4.5081 7.7720 24.3447 -3.8434 2.2606 -10.0377 -0.0000 0.0000 -0.4713 
0.8625 97.8600 0.3852 -1.4711 -0.0746 -1.7272 -0.0092 -0.0557 1.1030 -0.0208 -2.3338 1.2864 0.0296 -2.3317 1.2840 -1.3230 0.7685 -2.2803 3.7419 -1.9613 5.6575 0.0000 -0.0000 0.0000 0.0000 -0.0000 0.0000 0.0000 -0.0000 0.0000 -0.0606 7.0635 -0.3378 -71.9103 -9.1852 23.8417 -0.4196 -22.9519 -0.6221 -5.4683 14.5499 17.1931 -31.2832 -4.8675 2.1803 -16.0533 -0.2425 0.4453 -15.1141 -0.5965 0.4676 -5.5536 14.1663 -6.7927 4.2756 6.7128 4.4686 -0.8017 4.2880 2.5778 -17.9528 -6.9166 0.4479 -32.3862 -1.0218 -0.0972 -14.6646 -0.3711 -0.0687 -36.4536 -8.8168 2.2469 -15.3846 -0.5201 -0.2804 -2.1247 0.3111 0.0237 -50.0746 -1.1867 3.9203 -19.5985 -4.5607 1.7358 -6.8151 -0.2340 0.2092 -3.7034 3.1036 0.9178 76.0843 12.5814 24.2992 0.4402 21.1447 -0.5677 -4.1142 -14.7999 7.6649 23.1019 -1.4505 1.7896 22.8501 0.4257 0.6612 5.5944 0.0117 -1.1337 1.0874 -23.3278 12.9049 -3.6042 7.5348 0.4574 0.1051 -1.0914 0.7752 9.3174 1.2423 0.6706 35.4534 1.0863 -0.0799 4.8882 0.0179 -0.0125 30.9340 4.4114 2.0656 22.2573 0.7841 -0.3573 -0.3512 -0.7951 -1.3902 38.6537 -0.2591 3.0993 17.3537 0.5293 0.5630 7.2209 0.2396 0.2228 -4.5673 -14.5442 -10.6807 -3.0945 -3.5462 18.5070 7.8002 -3.4536 -4.0247 -0.0000 -0.0000 0.0000 2.4708 4.2694 -11.9429 4.4912 7.9001 24.5971 -3.7722 2.3039 -10.2176 -0.0000 0.0000 -0.4852 
